<?xml version="1.0"?><svg width="640" height="480" xmlns="http://www.w3.org/2000/svg">
 <title>Orange Plus Sign</title>
 <g>
  <title>Layer 1</title>
  <g id="g3">
   <path fill="#ff7f00" id="path5" d="m202.659866,464.309174c0,9.137054 106.131973,4.84729 117.042862,2.86557c18.103455,-3.27951 -33.640198,-10.950348 -38.043854,-11.139709c-7.070251,-0.298187 -79.010086,-3.170868 -78.999008,8.274139"/>
   <path fill="#ff7f00" id="path12" d="m338.724762,446.171936c0,-28.379181 0,-56.765411 0,-85.141052c0,-14.15625 0,-28.30896 0,-42.458221c0,-8.242615 5.011047,-5.19812 13.329468,-5.19812c36.781006,0 73.569336,0 110.357788,-0.006989c11.329468,0 23.740448,1.399445 33.662567,-4.942078c15.299744,-9.789459 13.481262,-26.130859 13.481262,-41.265747c0,-23.394943 10.966492,-78.069855 -13.492432,-93.716782c-21.373779,-13.672211 -68.395447,-4.949081 -92.220978,-4.949081c-10.862885,0 -65.106598,6.292419 -65.106598,-5.201614c0,-33.759659 0,-67.515839 -0.007355,-101.271965c0,-27.877586 -0.085205,-55.306236 -38.329102,-55.306236c-17.559143,0 -35.118073,0 -52.688263,0c-13.010941,0 -30.858856,-2.69726 -43.273468,2.2799c-28.595947,11.45545 -18.692444,60.77092 -18.692444,83.64328c0,6.00486 1.007507,75.856636 -0.922089,75.856636c-32.810699,0 -65.617691,0 -98.428398,0c-26.029243,0 -71.484232,-6.804535 -71.476831,30.241638c0,28.445801 0.00367,56.895111 0.00367,85.340881c0,37.295258 50.61783,29.301636 76.139803,29.301636c7.673935,0 94.683846,-0.936493 94.683846,0.876862c0,35.201324 0.003845,70.399078 0.003845,105.596741c0,11.392365 -2.440826,26.74826 2.399872,37.603821c8.459152,18.95816 28.503387,17.698914 46.392014,17.698914c27.262527,-0.007019 104.202347,13.082886 104.183823,-28.982422"/>
   <path fill="#ff7f00" id="path14" d="m36.85099,185.792831c9.651669,0 5.125751,100.510849 3.03318,110.847397c-3.473991,17.148193 -11.5702,-31.858551 -11.77014,-36.025482c-0.31484,-6.688766 -3.340731,-74.832428 8.736959,-74.821915"/>
   <path fill="#ff7f00" id="path16" d="m496.741241,185.792831c9.64798,0 5.129608,100.510849 3.040649,110.847397c-3.473999,17.148193 -11.577576,-31.858551 -11.777588,-36.025482c-0.314911,-6.688766 -3.329559,-74.832428 8.736938,-74.821915"/>
   <path fill="#ff7f00" id="path18" d="m204.519028,298.337921c9.859207,0.010468 4.948181,144.684235 2.981537,158.023193c-1.314865,8.870514 -4.762939,7.969116 -6.744308,-0.178772c-4.522186,-18.593323 -4.69252,-38.550934 -5.148117,-57.523071c-0.188873,-7.705902 -2.918579,-100.331848 8.910995,-100.32135"/>
   <path fill="#ff7f00" id="path20" d="m345.969086,186.722366c0,9.312408 132.864899,4.521057 145.05368,3.10759c5.77774,-0.673416 13.18866,-3.447891 3.618439,-6.225784c-16.625732,-4.815826 -35.599548,-4.770203 -52.791901,-5.261261c-7.748047,-0.220978 -95.880219,-2.974304 -95.880219,8.379456"/>
   <path fill="#ff7f00" id="path22" d="m36.85099,185.792831c0.01107,-7.89537 157.842308,-6.309967 157.849754,0.00354c0,6.751862 -157.827602,19.568329 -157.849754,-0.00354"/>
   <path fill="#ff7f00" id="path24" d="m202.659866,28.772699c0,9.140562 106.131973,4.847391 117.042862,2.869162c18.099854,-3.279541 -33.640198,-10.953911 -38.047546,-11.14332c-7.066559,-0.29817 -79.006393,-3.167261 -78.995316,8.274158"/>
   <path fill="#ff7f00" id="path26" d="m202.659866,28.772699c-8.325897,0 -6.681351,148.374166 -0.003754,148.374166c7.259262,0.00351 20.588608,-148.374166 0.003754,-148.374166"/>
   <path fill="#ff7f00" id="path28" d="m324.047119,25.39852c-8.340576,0 -4.67395,85.049799 -4.636871,92.019197c0.06662,13.009361 -1.625916,28.624672 2.544403,41.265755c3.214722,9.750732 8.347931,-15.822372 8.544281,-17.263992c1.574097,-11.701004 12.355347,-116.04199 -6.451813,-116.02096"/>
   <path fill="#ff7f00" id="path30" d="m324.043396,302.929199c-7.214722,-0.017517 -4.651703,81.047729 -4.651703,88.087341c0,20.161011 -0.988892,40.700989 1.21106,60.791901c1.214813,11.136261 5.429565,12.149933 8.040588,0.740082c2.600098,-11.322205 13.229523,-149.657867 -4.599945,-149.619324"/>
   <path fill="#ff7f00" id="path32" d="m38.517563,295.805511c-0.011086,-7.877869 89.813629,-4.426514 97.161728,-4.384399c13.744263,0.06308 30.229172,-1.539825 43.573441,2.402618c10.303619,3.044525 -16.710861,7.912933 -18.221924,8.095337c-12.348038,1.487213 -122.553936,11.676453 -122.513245,-6.113556"/>
   <path fill="#ff7f00" id="path34" d="m332.210022,295.819519c-0.007446,-6.913269 82.291473,-4.422974 89.361725,-4.422974c21.284973,0 42.973663,-0.922485 64.191895,1.157471c11.751587,1.150482 12.833069,5.13855 0.785095,7.618317c-11.988739,2.465759 -154.338715,12.816406 -154.338715,-4.352814"/>
   <path fill="#ff7f00" id="path36" d="m332.335938,12.76098c-16.759033,-15.86789 -53.717804,-9.49828 -75.00647,-9.49828c-25.78476,0 -67.432343,-6.73792 -74.517517,25.899369c-4.514755,20.792421 -0.696274,45.302828 -0.696274,66.330248c0,23.188042 0,46.376152 0,69.560707c-32.714401,-0.028061 -65.425079,-0.003555 -98.14312,0c-29.499596,0 -72.684227,-5.233215 -72.684227,35.194214c0,27.625046 -2.90738,56.67067 0,84.148331c0,41.809418 58.884361,32.41983 87.250641,32.41983c10.018448,0 83.584167,-3.844208 83.584167,3.461914c0,33.98056 0,67.968231 0,101.955902c0,31.45874 4.977722,56.351501 45.062347,56.351501c18.062683,0 36.129181,0 54.191833,0c14.4776,0.006927 33.055176,2.613037 45.73645,-5.415619c24.692352,-15.639984 15.251709,-63.187561 15.251709,-86.810547c0,-17.635712 0,-35.271393 0,-52.914093c0,-10.911804 -3.936951,-16.632568 8.177673,-16.632568c36.9328,0 73.873047,0 110.802246,0c12.470215,0 25.832886,1.43808 36.740204,-5.545349c16.533173,-10.582092 15.110931,-27.719788 15.110931,-44.110291c0,-25.13118 10.966553,-79.862183 -15.110931,-96.561417c-10.907318,-6.993927 -24.28479,-5.548843 -36.740204,-5.548843c-20.292328,0 -40.57724,0 -60.873291,0c-16.644196,0 -33.28479,0 -49.928955,0c-12.114624,0 -8.177673,-5.727661 -8.177673,-16.636047c0,-34.959244 0,-69.91497 0,-104.870644c-0.003754,-11.35376 -0.855621,-22.09371 -10.029541,-30.778319m-313.777348,271.63111c0,-28.056488 -0.003729,-56.098923 -0.003729,-84.155365c0,-36.32016 46.303102,-28.305511 71.887911,-28.305511c32.681068,0 65.358513,0 98.035881,0c1.888779,0 0.903625,-69.34671 0.903625,-75.246361c0,-20.830986 -10.051788,-72.215803 15.118317,-83.937902c10.807281,-5.03326 27.058914,-2.60258 38.599503,-2.60258c19.103424,0.00707 38.199463,0.01055 57.299286,0.01055c39.429108,0 34.69577,32.202331 34.69577,59.45206c0,32.998558 0,66.000626 0,99.006134c0,11.79921 140.664825,-6.309967 160.720154,8.933624c21.11084,16.057281 10.1073,71.16011 10.1073,93.264359c0,14.058044 0.740692,29.12973 -15.12204,36.513062c-9.977631,4.640381 -24.562683,2.59903 -35.262482,2.59903c-36.751373,0 -73.5065,0 -110.250427,0c-7.733276,0 -10.196136,-2.272888 -10.196136,5.099884c0,15.510162 0,31.023743 0,46.537445c0,27.453186 3.640594,57.351135 0,84.614838c0,37.481232 -72.158386,25.524078 -96.398788,25.524078c-16.133194,-0.006958 -36.121719,2.956787 -45.728989,-12.78479c-5.870346,-9.624634 -3.581467,-24.313995 -3.581467,-34.931213c0,-36.323608 0,-72.647247 0,-108.960358c0.003616,-24.457794 -170.87184,25.408356 -170.823689,-30.630981"/>
  </g>
 </g>
</svg>